<svg width="32" height="32" viewBox="0 0 32 32" fill="none" xmlns="http://www.w3.org/2000/svg">
<path d="M7.99992 2.66663C7.99992 3.35063 8.65325 3.99996 9.33325 3.99996H22.6666C23.3506 3.99996 23.9999 3.34663 23.9999 2.66663H26.6666C26.6666 4.87596 24.8759 6.66663 22.6666 6.66663H17.3333L17.3346 9.41596C22.5959 10.0733 26.6666 14.5613 26.6666 20V28C26.6666 28.736 26.0693 29.3333 25.3333 29.3333H6.66659C5.93059 29.3333 5.33325 28.736 5.33325 28V20C5.33325 14.56 9.40525 10.072 14.6666 9.41596V6.66663H9.33325C7.11992 6.66663 5.33325 4.87996 5.33325 2.66663H7.99992ZM15.9999 12C11.6826 12 7.99992 15.68 7.99992 20V26.6666H23.9999V20C23.9999 15.6826 20.3173 12 15.9999 12ZM15.9999 14.6666C16.9893 14.6666 17.9146 14.936 18.7093 15.4053L15.0559 19.0573C14.5359 19.5773 14.5359 20.4226 15.0559 20.9426C15.5373 21.4226 16.2946 21.46 16.8159 21.0533L16.9426 20.9426L20.5959 17.2906C21.0639 18.0853 21.3333 19.0106 21.3333 20C21.3333 22.9466 18.9466 25.3333 15.9999 25.3333C13.0533 25.3333 10.6666 22.9466 10.6666 20C10.6666 17.0533 13.0533 14.6666 15.9999 14.6666Z" fill="#999999"/>
</svg>
