<svg width="156" height="279" viewBox="0 0 156 279" fill="none" xmlns="http://www.w3.org/2000/svg">
<path d="M134.824 269.792C122.938 276.679 96.3063 278.799 66.239 274.281C36.1717 269.763 11.3532 259.923 2.01062 249.835C-0.913508 244.674 -0.409099 236.516 2.33958 234.008C2.36781 233.978 2.39974 233.951 2.43461 233.928L2.82206 233.65C13.6486 225.857 41.5155 223.255 73.1911 228.014C104.867 232.773 130.65 243.409 138.75 254.024C138.889 254.199 139.013 254.368 139.137 254.543C139.142 254.555 139.142 254.568 139.137 254.58C141.038 257.781 139.064 265.706 134.824 269.792Z" fill="#FF8473"/>
<path d="M134.825 269.792C134.33 270.279 133.786 270.712 133.202 271.086C123.457 277.249 94.457 280.282 65.9468 276.006C37.4366 271.729 10.6443 260.303 3.14389 251.546C2.69467 251.018 2.30259 250.445 1.97424 249.835C-0.949885 244.674 -0.445476 236.516 2.3032 234.008C2.33144 233.978 2.36336 233.951 2.39824 233.928L2.78568 233.65C3.24786 233.375 3.77896 233.238 4.31644 233.255C4.85391 233.272 5.37539 233.442 5.81946 233.745C11.8797 237.115 35.8575 252.328 68.7612 257.27C101.665 262.211 129.057 254.726 135.833 253.285C136.334 253.126 136.869 253.111 137.378 253.24C137.887 253.369 138.349 253.638 138.714 254.016C138.852 254.192 138.977 254.36 139.101 254.536C139.106 254.547 139.106 254.56 139.101 254.572C141.038 257.781 139.064 265.706 134.825 269.792Z" fill="#D37568"/>
<path opacity="0.2" d="M134.825 269.65C134.33 270.137 133.786 270.57 133.202 270.944C123.457 277.107 94.457 280.14 65.9468 275.864C37.4366 271.587 10.6443 260.161 3.14389 251.404C2.69467 250.876 2.30259 250.303 1.97424 249.693C-0.949885 244.532 -0.445476 236.374 2.3032 233.866C2.33144 233.836 2.36336 233.809 2.39824 233.786L2.78568 233.508C3.24786 233.233 3.77896 233.096 4.31644 233.113C4.85391 233.13 5.37539 233.3 5.81946 233.603C11.8797 236.973 35.8575 252.186 68.7612 257.128C101.665 262.069 129.057 254.584 135.833 253.143C136.334 252.984 136.869 252.969 137.378 253.098C137.887 253.227 138.349 253.496 138.714 253.874C138.852 254.05 138.977 254.218 139.101 254.394C139.106 254.405 139.106 254.418 139.101 254.43C141.038 257.639 139.064 265.564 134.825 269.65Z" fill="#FF8473"/>
<path opacity="0.1" d="M132.062 264.178C131.491 264.448 130.852 264.543 130.227 264.451C129.602 264.358 129.019 264.082 128.55 263.658C128.082 263.234 127.75 262.681 127.596 262.068C127.443 261.455 127.474 260.81 127.687 260.215C127.899 259.62 128.284 259.102 128.791 258.725C129.298 258.349 129.906 258.131 130.537 258.1C131.168 258.068 131.794 258.225 132.336 258.55C132.878 258.874 133.312 259.352 133.582 259.923C133.762 260.302 133.865 260.713 133.886 261.132C133.906 261.551 133.844 261.97 133.703 262.366C133.562 262.761 133.344 263.124 133.063 263.435C132.781 263.746 132.441 263.998 132.062 264.178Z" fill="black"/>
<path opacity="0.1" d="M19.219 252.81C18.6227 253.019 17.9779 253.046 17.3661 252.889C16.7543 252.731 16.203 252.395 15.7819 251.925C15.3608 251.454 15.0888 250.868 15.0003 250.243C14.9117 249.617 15.0107 248.979 15.2847 248.41C15.5586 247.841 15.9952 247.365 16.5392 247.044C17.0832 246.723 17.7103 246.57 18.3411 246.606C18.9719 246.641 19.5781 246.862 20.0831 247.242C20.5881 247.621 20.9692 248.142 21.1781 248.739C21.4564 249.538 21.4065 250.416 21.0394 251.179C20.6722 251.942 20.0176 252.529 19.219 252.81Z" fill="black"/>
<path opacity="0.1" d="M126.718 270.955C126.223 271.191 125.67 271.275 125.128 271.196C124.585 271.117 124.079 270.878 123.673 270.511C123.266 270.143 122.978 269.663 122.845 269.131C122.713 268.6 122.741 268.041 122.926 267.525C123.112 267.01 123.447 266.561 123.888 266.236C124.329 265.911 124.857 265.725 125.404 265.701C125.952 265.676 126.494 265.816 126.962 266.1C127.43 266.385 127.803 266.802 128.033 267.299C128.339 267.959 128.373 268.713 128.126 269.397C127.88 270.082 127.374 270.641 126.718 270.955Z" fill="black"/>
<path opacity="0.1" d="M123.435 262.862C123.015 263.062 122.546 263.133 122.087 263.066C121.627 262.999 121.198 262.797 120.853 262.486C120.508 262.175 120.263 261.769 120.149 261.319C120.036 260.868 120.058 260.394 120.214 259.957C120.37 259.519 120.652 259.138 121.024 258.861C121.397 258.584 121.844 258.423 122.307 258.4C122.771 258.377 123.232 258.492 123.63 258.731C124.028 258.969 124.347 259.321 124.546 259.74C124.811 260.302 124.844 260.946 124.635 261.531C124.427 262.116 123.995 262.595 123.435 262.862Z" fill="black"/>
<path opacity="0.1" d="M47.1223 234.651C46.8476 235.025 46.4682 235.309 46.0321 235.468C45.5959 235.626 45.1227 235.652 44.6721 235.541C44.2214 235.431 43.8137 235.189 43.5004 234.847C43.1871 234.504 42.9822 234.077 42.9118 233.618C42.8413 233.16 42.9083 232.691 43.1044 232.27C43.3006 231.85 43.6169 231.497 44.0136 231.256C44.4102 231.015 44.8693 230.898 45.3328 230.918C45.7964 230.938 46.2436 231.095 46.6179 231.369C46.8667 231.551 47.0771 231.781 47.2371 232.044C47.3972 232.308 47.5037 232.601 47.5505 232.906C47.5973 233.21 47.5836 233.522 47.5102 233.821C47.4367 234.121 47.3049 234.403 47.1223 234.651Z" fill="black"/>
<path opacity="0.1" d="M10.3219 247.861C9.88428 248.009 9.41274 248.024 8.9667 247.904C8.52066 247.784 8.12007 247.535 7.81543 247.188C7.51078 246.841 7.31571 246.411 7.25481 245.953C7.1939 245.496 7.26988 245.03 7.47317 244.615C7.67646 244.201 7.99797 243.855 8.39717 243.623C8.79636 243.391 9.25538 243.282 9.71638 243.31C10.1774 243.338 10.6197 243.502 10.9877 243.781C11.3556 244.061 11.6327 244.442 11.7839 244.879C11.8841 245.171 11.9257 245.479 11.9064 245.787C11.8871 246.095 11.8072 246.396 11.6714 246.673C11.5356 246.95 11.3465 247.198 11.115 247.402C10.8834 247.606 10.6139 247.762 10.3219 247.861Z" fill="black"/>
<path opacity="0.1" d="M105.802 252.533C105.528 252.908 105.149 253.193 104.713 253.352C104.277 253.512 103.803 253.538 103.352 253.428C102.901 253.318 102.492 253.076 102.178 252.734C101.864 252.392 101.659 251.964 101.588 251.505C101.518 251.046 101.585 250.577 101.781 250.156C101.978 249.735 102.294 249.382 102.692 249.141C103.089 248.9 103.548 248.783 104.012 248.804C104.476 248.824 104.924 248.982 105.298 249.258C105.546 249.439 105.757 249.668 105.917 249.931C106.077 250.194 106.183 250.486 106.23 250.79C106.277 251.095 106.263 251.405 106.19 251.704C106.116 252.003 105.985 252.285 105.802 252.533Z" fill="black"/>
<path d="M6.87913 213.781C6.38934 209.899 7.61016 205.44 20.0377 201.156C37.8843 194.823 56.4752 190.825 75.3475 189.262C94.4374 187.72 113.646 188.601 132.514 191.886C145.768 194.036 148.1 198.195 148.597 202.084C149.094 205.973 148.282 209.585 141.74 211.317C131.622 214.007 109.984 209.987 78.14 211.127C46.7057 215.214 26.4781 222.692 15.9147 221.705C9.06493 221.076 7.38354 217.721 6.87913 213.781Z" fill="#EB8879"/>
<path opacity="0.4" d="M6.87913 213.781C6.38934 209.899 7.61016 205.44 20.0377 201.156C37.8843 194.823 56.4752 190.825 75.3475 189.262C94.4374 187.72 113.646 188.601 132.514 191.886C145.768 194.036 148.1 198.195 148.597 202.084C149.094 205.973 148.282 209.585 141.74 211.317C131.622 214.007 109.984 209.987 78.14 211.127C46.7057 215.214 26.4781 222.692 15.9147 221.705C9.06493 221.076 7.38354 217.721 6.87913 213.781Z" fill="black"/>
<path d="M148.407 203.217C148.897 207.106 147.676 211.558 135.249 215.842C117.403 222.179 98.8118 226.177 79.9388 227.736C60.849 229.286 41.6397 228.404 22.7722 225.112C9.52588 222.962 7.19388 218.803 6.68947 214.914C6.18506 211.025 7.00381 207.421 13.5539 205.681C23.664 202.991 45.3025 207.011 77.1535 205.878C108.588 201.785 128.823 194.313 139.386 195.293C146.221 195.907 147.91 199.241 148.407 203.217Z" fill="#EB8879"/>
<path opacity="0.5" d="M148.407 203.217C148.897 207.106 147.676 211.558 135.249 215.842C117.403 222.179 98.8118 226.177 79.9388 227.736C60.849 229.286 41.6397 228.404 22.7722 225.112C9.52588 222.962 7.19388 218.803 6.68947 214.914C6.18506 211.025 7.00381 207.421 13.5539 205.681C23.664 202.991 45.3025 207.011 77.1535 205.878C108.588 201.785 128.823 194.313 139.386 195.293C146.221 195.907 147.91 199.241 148.407 203.217Z" fill="black"/>
<path d="M118.121 195.256C101.205 202.362 85.8237 211.339 81.3864 211.792C76.949 212.246 60.0914 206.463 42.1081 202.83C25.0677 199.379 6.74809 198.1 7.19402 196.433C8.10781 193.012 66.0274 171.432 77.256 170.314C88.4847 169.195 149.518 178.918 151.09 182.091C151.858 183.64 134.145 188.509 118.121 195.256Z" fill="#E6B323"/>
<path d="M14.2114 195.446C18.8389 195.812 23.4516 196.367 28.0571 196.945C32.6626 197.522 37.2535 198.297 41.8225 199.138C50.9969 200.768 59.9301 203.458 68.8341 206.032C71.0271 206.697 73.2714 207.362 75.5011 207.969C76.6049 208.261 77.6942 208.554 78.8273 208.758C79.3074 208.862 79.7984 208.906 80.2893 208.89C80.296 208.886 80.3036 208.884 80.3112 208.884C80.3189 208.884 80.3265 208.886 80.3332 208.89L80.5233 208.795L80.918 208.612L81.7002 208.232C85.8817 206.222 90.0413 204.167 94.252 202.223C102.673 198.334 111.066 194.284 119.743 191.023C115.496 192.88 111.351 194.978 107.199 197.04L94.771 203.239C90.6407 205.337 86.4592 207.355 82.3435 209.431L81.5613 209.811L81.1665 210.008L80.9692 210.103C80.8474 210.15 80.7229 210.189 80.5963 210.22C80.2468 210.264 79.8932 210.264 79.5437 210.22C79.222 210.22 78.9223 210.147 78.6226 210.103C77.4456 209.891 76.3125 209.606 75.1794 209.321C72.9132 208.729 70.6836 208.078 68.4612 207.435C59.5792 204.738 50.7045 202.091 41.6397 200.234C37.1146 199.262 32.5603 198.421 27.984 197.654C23.4078 196.886 18.8023 196.141 14.2114 195.446Z" fill="white"/>
<path d="M74.4994 126.642C62.2839 120.793 61.2458 125.618 56.1505 127.227C51.0552 128.835 46.5886 115.274 37.3046 118.132C28.0205 120.991 37.5604 119.273 34.8044 123.199C32.0485 127.124 17.3109 112.065 14.0432 117.35C10.7755 122.636 16.4629 124.215 14.4087 125.604C12.3545 126.993 6.87906 124.814 4.71521 127.724C2.55136 130.633 9.83242 130.385 11.3603 133.616C12.8881 136.847 8.24609 140.502 12.4495 143.85C16.9454 147.44 20.9222 139.201 26.171 142.161C31.4198 145.122 27.114 148.134 32.5675 152.038C38.021 155.941 40.7331 149.691 44.264 150.254C47.7949 150.817 48.8841 155.444 52.4588 156.307C56.0336 157.17 58.7896 152.571 62.2985 152.959C65.8075 153.346 65.0618 158.135 71.144 159.385C77.2262 160.635 76.2027 155.262 78.6444 155.181C81.086 155.101 81.3638 158.836 84.4268 159.29C87.4898 159.743 87.9723 155.7 90.7868 155.985C93.6012 156.27 95.7066 161.958 100.049 161.556C104.391 161.154 105.269 156.387 108.244 155.62C111.219 154.852 114.231 159.275 119.268 158.091C124.305 156.906 122.609 154.004 126.629 152.973C130.65 151.943 132.339 156.585 139.532 155.276C144.086 154.443 140.811 148.88 142.595 147.469C144.379 146.058 153.348 152.659 155.483 147.162C157.618 141.664 146.25 139.778 146.045 137.885C145.841 135.992 148.056 132.219 142.939 128.981C137.821 125.743 135.855 132.022 131.973 132.958C128.091 133.894 130.116 127.46 122.616 127.066C115.115 126.671 114.165 131.89 111.892 131.847C109.618 131.803 105.364 125.165 100.005 123.878C94.6466 122.592 96.4815 127.731 91.4813 128.228C87.8627 128.594 88.6522 124.419 83.3376 123.747C78.023 123.074 76.6998 127.702 74.4994 126.642Z" fill="#455A64"/>
<path d="M67.1666 139.552C55.2873 135.56 55.0315 140.575 50.638 142.98C46.2445 145.385 40.3085 132.49 32.2964 136.788C24.2843 141.087 32.6912 137.892 30.7466 142.249C28.8021 146.606 13.3262 133.806 11.1331 139.617C8.93997 145.429 14.2911 146.116 12.5951 147.82C10.8991 149.523 5.66494 148.2 4.11516 151.475C2.56537 154.75 9.15196 153.346 10.9576 156.343C12.7633 159.341 9.1008 163.727 13.3773 166.439C17.9609 169.363 20.4025 160.474 25.5709 162.623C30.7393 164.772 27.2596 168.471 32.7423 171.52C38.2251 174.568 39.8114 167.908 43.0864 167.93C46.3614 167.952 47.9916 172.404 51.3544 172.711C54.7171 173.018 56.5666 167.996 59.7905 167.842C63.0143 167.689 63.0216 172.594 68.7091 172.901C74.3965 173.208 72.7078 167.996 74.9082 167.535C77.1086 167.075 77.8762 170.752 80.7126 170.752C83.549 170.752 83.432 166.614 86.0126 166.461C88.5931 166.307 91.3052 171.673 95.1797 170.598C99.0542 169.524 99.1857 164.619 101.759 163.39C104.332 162.162 107.702 166.154 112.096 164.158C116.489 162.162 114.545 159.553 118.032 157.864C121.519 156.175 123.712 160.598 130.043 158.171C134.049 156.636 130.306 151.592 131.724 149.888C133.142 148.185 142.185 153.412 143.347 147.586C144.51 141.759 133.954 141.62 133.508 139.756C133.062 137.892 134.531 133.769 129.443 131.32C124.355 128.871 123.456 135.458 120.101 136.993C116.745 138.528 117.644 131.781 110.802 132.548C103.959 133.316 103.828 138.682 101.759 138.989C99.6902 139.296 94.9165 133.309 89.8797 132.855C84.8429 132.402 87.2261 137.242 82.7741 138.528C79.5502 139.449 79.6745 135.151 74.7693 135.304C69.8641 135.458 69.3158 140.275 67.1666 139.552Z" fill="#37474F"/>
<path d="M121.805 88.4454C112.302 84.1396 98.8944 85.3239 92.6441 94.7249C86.3938 104.126 97.7614 116.327 107.06 120.516C116.359 124.705 131.542 125.019 137.032 115.771C141.726 107.781 138.429 96.0408 121.805 88.4454Z" fill="#FFC727"/>
<path opacity="0.1" d="M121.805 88.4454C112.302 84.1396 98.8944 85.3239 92.6441 94.7249C86.3938 104.126 97.7614 116.327 107.06 120.516C116.359 124.705 131.542 125.019 137.032 115.771C141.726 107.781 138.429 96.0408 121.805 88.4454Z" fill="black"/>
<path d="M120.613 91.4862C112.872 87.9626 101.899 88.9276 96.7888 96.6034C91.6789 104.279 100.97 114.25 108.566 117.672C116.161 121.093 128.567 121.327 133.026 113.797C136.871 107.255 134.196 97.6634 120.613 91.4862Z" fill="#FFC727"/>
<path d="M124.392 104.148C124.392 104.762 127.097 105.749 127.09 104.572C127.083 103.578 124.444 103.351 124.392 104.148Z" fill="white"/>
<path d="M117.813 112.021C117.082 112.021 117.082 114.309 118.501 114.214C119.685 114.185 118.786 112.006 117.813 112.021Z" fill="white"/>
<path d="M124.517 114.214C123.976 114.572 125.548 116.714 126.52 115.998C127.368 115.398 125.211 113.754 124.517 114.214Z" fill="white"/>
<path d="M128.501 102.24C129.042 102.766 131.425 101.896 130.314 100.924C129.414 100.142 127.792 101.56 128.501 102.24Z" fill="white"/>
<path d="M112.616 95.5511C113.347 95.4414 112.865 93.1241 111.527 93.358C110.408 93.5627 111.688 95.69 112.616 95.5511Z" fill="white"/>
<path d="M103.529 105.478C103.529 104.857 100.766 103.95 100.832 105.142C100.89 106.136 103.537 106.282 103.529 105.478Z" fill="white"/>
<path d="M107.22 108.841C106.877 108.234 104.15 108.373 104.866 109.521C105.437 110.486 107.666 109.645 107.22 108.841Z" fill="white"/>
<path d="M113.098 101.121C113.829 101.333 114.831 99.3523 113.376 98.9941C112.163 98.6798 112.119 100.873 113.098 101.121Z" fill="white"/>
<path d="M102.579 90.4409C102.579 90.4409 111.921 100.193 110.744 102.51C109.567 104.828 93.9304 101.743 93.85 100.164C93.7696 98.5846 97.9584 90.938 102.579 90.4409Z" fill="#FFC727"/>
<path opacity="0.1" d="M102.579 90.4409C102.579 90.4409 111.921 100.193 110.744 102.51C109.567 104.828 93.9304 101.743 93.85 100.164C93.7696 98.5846 97.9584 90.938 102.579 90.4409Z" fill="black"/>
<path d="M101.738 114.309C101.738 114.309 110.014 106.707 113.281 107.73C116.549 108.754 118.793 121.62 116.936 121.656C115.08 121.693 104.114 118.133 101.738 114.309Z" fill="#FFC727"/>
<path opacity="0.1" d="M101.738 114.309C101.738 114.309 110.014 106.707 113.281 107.73C116.549 108.754 118.793 121.62 116.936 121.656C115.08 121.693 104.114 118.133 101.738 114.309Z" fill="black"/>
<path d="M131.71 118.973C131.71 118.973 121.147 110.047 121.922 107.569C122.697 105.091 138.29 106.56 138.619 108.147C138.947 109.733 136.096 117.972 131.71 118.973Z" fill="#FFC727"/>
<path opacity="0.1" d="M131.71 118.973C131.71 118.973 121.147 110.047 121.922 107.569C122.697 105.091 138.29 106.56 138.619 108.147C138.947 109.733 136.096 117.972 131.71 118.973Z" fill="black"/>
<path d="M131.264 96.399C131.264 96.399 122.339 103.475 119.115 102.328C115.891 101.18 114.568 88.3723 116.468 88.4381C118.369 88.5039 129.137 92.51 131.264 96.399Z" fill="#FFC727"/>
<path opacity="0.1" d="M131.264 96.399C131.264 96.399 122.339 103.475 119.115 102.328C115.891 101.18 114.568 88.3723 116.468 88.4381C118.369 88.5039 129.137 92.51 131.264 96.399Z" fill="black"/>
<path d="M43.2995 109.068C52.8687 105.412 62.6426 94.5786 62.5768 82.7505C62.511 70.9224 47.3786 69.9428 38.0068 73.5761C28.635 77.2093 16.7265 88.1967 17.326 99.2937C17.8742 108.914 26.5369 115.493 43.2995 109.068Z" fill="#FFC727"/>
<path opacity="0.1" d="M43.2995 109.068C52.8687 105.412 62.6426 94.5786 62.5768 82.7505C62.511 70.9224 47.3786 69.9428 38.0068 73.5761C28.635 77.2093 16.7265 88.1967 17.326 99.2937C17.8742 108.914 26.5369 115.493 43.2995 109.068Z" fill="black"/>
<path d="M42.6857 105.88C50.5004 102.883 58.4832 94.045 58.4394 84.3808C58.3955 74.7165 46.0118 73.9124 38.3579 76.8877C30.704 79.863 20.974 88.8035 21.4638 97.8902C21.8878 105.771 28.9642 111.151 42.6857 105.88Z" fill="#FFC727"/>
<path d="M33.1671 98.943C32.8674 98.4532 30.243 99.674 30.8644 100.61C31.3834 101.363 33.5546 99.579 33.1671 98.943Z" fill="white"/>
<path d="M34.1541 88.0504C34.7243 87.4875 33.5181 85.755 32.4655 86.8516C31.6028 87.7726 33.4085 88.7742 34.1541 88.0504Z" fill="white"/>
<path d="M27.8306 91.3036C28.0572 90.6384 25.7326 90.1412 25.3524 91.4132C25.0235 92.4805 27.5309 92.1735 27.8306 91.3036Z" fill="white"/>
<path d="M30.9812 103.431C30.2941 103.431 28.9197 105.829 30.2502 105.785C31.3833 105.741 31.8877 103.439 30.9812 103.431Z" fill="white"/>
<path d="M46.7501 96.8594C46.253 97.4734 47.8174 98.9063 48.7239 97.7293C49.4769 96.7351 47.3934 96.0699 46.7501 96.8594Z" fill="white"/>
<path d="M48.6067 82.5457C48.9356 83.0209 51.5308 81.6758 50.8656 80.8132C50.3027 80.0895 48.1827 81.9317 48.6067 82.5457Z" fill="white"/>
<path d="M44.0306 82.6848C44.6154 82.8968 46.6477 80.7768 45.4927 80.4259C44.5058 80.1262 43.2411 82.407 44.0306 82.6848Z" fill="white"/>
<path d="M43.4745 92.9483C42.78 93.3431 43.0505 95.5727 44.3663 94.7832C45.4921 94.118 44.3809 92.4366 43.4745 92.9483Z" fill="white"/>
<path d="M57.1889 93.3869C57.1889 93.3869 44.8857 92.7875 44.5932 90.1412C44.3008 87.4948 57.993 78.3423 58.8776 79.49C59.7621 80.6377 60.4859 89.6002 57.1889 93.3869Z" fill="#FFC727"/>
<path opacity="0.1" d="M57.1889 93.3869C57.1889 93.3869 44.8857 92.7875 44.5932 90.1412C44.3008 87.4948 57.993 78.3423 58.8776 79.49C59.7621 80.6377 60.4859 89.6002 57.1889 93.3869Z" fill="black"/>
<path d="M45.3975 74.4388C45.3975 74.4388 42.9485 86.3838 39.9074 88.0213C36.8664 89.6588 28.423 81.442 29.8485 79.98C31.274 78.5179 41.5669 73.2618 45.3975 74.4388Z" fill="#FFC727"/>
<path opacity="0.1" d="M45.3975 74.4388C45.3975 74.4388 42.9485 86.3838 39.9074 88.0213C36.8664 89.6588 28.423 81.442 29.8485 79.98C31.274 78.5179 41.5669 73.2618 45.3975 74.4388Z" fill="black"/>
<path d="M19.7895 92.9559C19.7895 92.9559 32.6045 92.0202 33.2916 94.4984C33.9788 96.9766 21.1711 107.335 20.0819 106.356C18.9927 105.376 16.9165 96.9547 19.7895 92.9559Z" fill="#FFC727"/>
<path opacity="0.1" d="M19.7895 92.9559C19.7895 92.9559 32.6045 92.0202 33.2916 94.4984C33.9788 96.9766 21.1711 107.335 20.0819 106.356C18.9927 105.376 16.9165 96.9547 19.7895 92.9559Z" fill="black"/>
<path d="M31.8879 109.96C31.8879 109.96 35.1045 97.9488 38.1821 96.4867C41.2597 95.0247 48.9648 103.848 47.4662 105.259C45.9676 106.67 35.5577 111.378 31.8879 109.96Z" fill="#FFC727"/>
<path opacity="0.1" d="M31.8879 109.96C31.8879 109.96 35.1045 97.9488 38.1821 96.4867C41.2597 95.0247 48.9648 103.848 47.4662 105.259C45.9676 106.67 35.5577 111.378 31.8879 109.96Z" fill="black"/>
<path d="M61.1072 139.062C70.8884 141.321 85.2312 138.645 92.4319 130.289C99.6325 121.934 88.3601 113.578 78.7616 111.4C69.1632 109.221 53.0732 110.902 46.7132 119.039C41.1939 126.093 43.9572 135.107 61.1072 139.062Z" fill="#FFC727"/>
<path opacity="0.1" d="M61.1072 139.062C70.8884 141.321 85.2312 138.645 92.4319 130.289C99.6325 121.934 88.3601 113.578 78.7616 111.4C69.1632 109.221 53.0732 110.902 46.7132 119.039C41.1939 126.093 43.9572 135.107 61.1072 139.062Z" fill="black"/>
<path d="M62.5621 136.496C70.5522 138.338 82.2561 136.152 88.1482 129.324C94.0403 122.497 84.8147 115.676 76.978 113.892C69.1414 112.109 55.9901 113.49 50.7925 120.135C46.2893 125.896 48.5482 133.265 62.5621 136.496Z" fill="#FFC727"/>
<path d="M59.3819 126.795C59.4477 126.298 56.6113 125.852 56.5455 126.795C56.4577 127.599 59.2649 127.439 59.3819 126.795Z" fill="white"/>
<path d="M66.8236 119.624C67.0381 119.537 67.2111 119.372 67.3067 119.161C67.4023 118.951 67.4131 118.711 67.3369 118.493C67.2607 118.275 67.1033 118.094 66.8974 117.989C66.6916 117.884 66.4531 117.862 66.2314 117.928C64.9668 118.125 65.7855 119.763 66.8236 119.624Z" fill="white"/>
<path d="M59.8498 118.717C60.4419 118.366 58.9141 116.839 57.8322 117.54C56.9257 118.132 59.0822 119.149 59.8498 118.717Z" fill="white"/>
<path d="M54.8789 128.849C54.3307 128.498 51.7867 129.5 52.8613 130.143C53.7678 130.677 55.5807 129.31 54.8789 128.849Z" fill="white"/>
<path d="M71.305 132.197C70.5374 132.38 70.8883 134.186 72.3212 133.806C73.52 133.491 72.2919 131.971 71.305 132.197Z" fill="white"/>
<path d="M81.5615 123.067C81.5615 123.564 84.3979 123.937 84.3979 122.987C84.3979 122.19 81.6054 122.416 81.5615 123.067Z" fill="white"/>
<path d="M77.855 120.83C78.184 121.276 81.0788 120.83 80.399 119.982C79.8507 119.287 77.431 120.252 77.855 120.83Z" fill="white"/>
<path d="M71.1371 127.789C70.3476 127.716 69.1926 129.427 70.7058 129.529C71.9778 129.617 72.1606 127.921 71.1371 127.789Z" fill="white"/>
<path d="M81.6268 135.026C81.6268 135.026 72.3281 128.381 73.7244 126.371C75.1207 124.361 91.4958 124.843 91.4885 126.093C91.4812 127.343 86.5613 134.032 81.6268 135.026Z" fill="#FFC727"/>
<path opacity="0.1" d="M81.6268 135.026C81.6268 135.026 72.3281 128.381 73.7244 126.371C75.1207 124.361 91.4958 124.843 91.4885 126.093C91.4812 127.343 86.5613 134.032 81.6268 135.026Z" fill="black"/>
<path d="M84.0177 115.735C84.0177 115.735 74.7555 122.899 71.3562 122.511C67.9569 122.124 66.3852 112.072 68.3809 111.787C70.3766 111.502 81.7369 112.964 84.0177 115.735Z" fill="#FFC727"/>
<path opacity="0.1" d="M84.0177 115.735C84.0177 115.735 74.7555 122.899 71.3562 122.511C67.9569 122.124 66.3852 112.072 68.3809 111.787C70.3766 111.502 81.7369 112.964 84.0177 115.735Z" fill="black"/>
<path d="M52.5178 115.815C52.5178 115.815 63.1616 121.663 62.182 123.725C61.2024 125.786 44.7689 126.649 44.513 125.399C44.2572 124.149 47.8026 117.175 52.5178 115.815Z" fill="#FFC727"/>
<path opacity="0.1" d="M52.5178 115.815C52.5178 115.815 63.1616 121.663 62.182 123.725C61.2024 125.786 44.7689 126.649 44.513 125.399C44.2572 124.149 47.8026 117.175 52.5178 115.815Z" fill="black"/>
<path d="M51.582 133.901C51.582 133.901 61.4875 127.073 64.8356 127.585C68.1837 128.096 68.7832 138.221 66.7656 138.433C64.7479 138.645 53.5851 136.759 51.582 133.901Z" fill="#FFC727"/>
<path opacity="0.1" d="M51.582 133.901C51.582 133.901 61.4875 127.073 64.8356 127.585C68.1837 128.096 68.7832 138.221 66.7656 138.433C64.7479 138.645 53.5851 136.759 51.582 133.901Z" fill="black"/>
<path d="M145.219 81.676C133.135 99.6081 86.0496 90.4922 71.8896 86.9028C57.7295 83.3135 11.9889 68.9122 9.90544 47.3833C7.82201 25.8544 45.726 -9.63713 93.2942 2.44682C140.862 14.5308 157.296 63.7365 145.219 81.676Z" fill="#FF8473"/>
<path opacity="0.2" d="M145.219 81.676C133.135 99.6081 86.0496 90.4922 71.8896 86.9028C57.7295 83.3135 11.9889 68.9122 9.90544 47.3833C7.82201 25.8544 45.726 -9.63713 93.2942 2.44682C140.862 14.5308 157.296 63.7365 145.219 81.676Z" fill="black"/>
<path opacity="0.1" d="M142.654 72.4651C142.276 72.9699 141.757 73.3516 141.162 73.5621C140.568 73.7725 139.924 73.8023 139.313 73.6476C138.701 73.493 138.15 73.1608 137.727 72.693C137.304 72.2253 137.029 71.6427 136.936 71.0189C136.844 70.3951 136.938 69.7578 137.207 69.1875C137.476 68.6171 137.908 68.1392 138.448 67.8138C138.988 67.4885 139.613 67.3304 140.243 67.3593C140.873 67.3883 141.48 67.6031 141.988 67.9766C142.328 68.2264 142.615 68.5412 142.833 68.9026C143.051 69.264 143.194 69.6649 143.256 70.0822C143.318 70.4995 143.297 70.9249 143.193 71.3339C143.09 71.7429 142.906 72.1274 142.654 72.4651Z" fill="black"/>
<path opacity="0.1" d="M83.5061 75.0894C83.1323 75.5987 82.6159 75.9858 82.0222 76.2017C81.4285 76.4177 80.7841 76.4527 80.1705 76.3024C79.5569 76.1521 79.0016 75.8233 78.5748 75.3574C78.1481 74.8916 77.8691 74.3097 77.773 73.6853C77.6769 73.0608 77.7682 72.422 78.0351 71.8494C78.3021 71.2768 78.7329 70.7963 79.273 70.4685C79.813 70.1407 80.4382 69.9804 81.0693 70.0079C81.7005 70.0354 82.3093 70.2494 82.8189 70.6228C83.1574 70.8709 83.4437 71.1832 83.6614 71.542C83.8792 71.9008 84.0241 72.2989 84.0879 72.7137C84.1517 73.1285 84.1332 73.5518 84.0333 73.9595C83.9335 74.3671 83.7543 74.751 83.5061 75.0894Z" fill="black"/>
<path opacity="0.1" d="M141.177 80.9669C140.853 81.4068 140.406 81.7409 139.892 81.9269C139.379 82.1129 138.821 82.1425 138.291 82.012C137.76 81.8814 137.281 81.5966 136.912 81.1934C136.543 80.7903 136.303 80.2869 136.22 79.747C136.137 79.207 136.216 78.6546 136.447 78.1597C136.679 77.6647 137.051 77.2493 137.518 76.966C137.985 76.6828 138.526 76.5443 139.072 76.5681C139.617 76.5919 140.144 76.7769 140.585 77.0997C140.878 77.3145 141.126 77.585 141.314 77.8957C141.502 78.2065 141.628 78.5513 141.683 78.9105C141.738 79.2697 141.721 79.6362 141.635 79.9891C141.548 80.342 141.392 80.6742 141.177 80.9669Z" fill="black"/>
<path opacity="0.1" d="M20.4694 46.6887C20.1463 47.1297 19.6996 47.4649 19.1858 47.6519C18.6721 47.8389 18.1145 47.8693 17.5835 47.7393C17.0524 47.6093 16.5719 47.3247 16.2027 46.9215C15.8335 46.5183 15.5922 46.0147 15.5093 45.4743C15.4264 44.9339 15.5056 44.3811 15.737 43.8858C15.9684 43.3904 16.3415 42.9749 16.8091 42.6917C17.2767 42.4085 17.8179 42.2703 18.364 42.2948C18.9102 42.3192 19.4368 42.505 19.8773 42.8289C20.1702 43.043 20.4179 43.3128 20.6063 43.6229C20.7946 43.933 20.9199 44.2772 20.9749 44.6358C21.03 44.9944 21.0136 45.3604 20.9269 45.7127C20.8401 46.0649 20.6847 46.3966 20.4694 46.6887Z" fill="black"/>
<path opacity="0.1" d="M134.437 75.4108C134.163 75.7858 133.784 76.071 133.347 76.2304C132.911 76.3898 132.438 76.4161 131.986 76.3061C131.535 76.1961 131.127 75.9547 130.813 75.6125C130.499 75.2702 130.294 74.8425 130.223 74.3835C130.152 73.9245 130.219 73.4549 130.416 73.034C130.612 72.6132 130.929 72.26 131.326 72.0194C131.723 71.7787 132.183 71.6613 132.647 71.682C133.111 71.7028 133.558 71.8607 133.932 72.1358C134.433 72.5038 134.767 73.0552 134.861 73.6691C134.956 74.283 134.803 74.9093 134.437 75.4108Z" fill="black"/>
<path opacity="0.1" d="M64.0169 11.7456C63.7429 12.1205 63.3637 12.4058 62.9275 12.5651C62.4913 12.7245 62.0176 12.7508 61.5664 12.6408C61.1152 12.5308 60.7068 12.2894 60.3929 11.9472C60.079 11.6049 59.8737 11.1772 59.803 10.7182C59.7323 10.2592 59.7994 9.78956 59.9958 9.36872C60.1922 8.94787 60.509 8.59475 60.9062 8.35408C61.3034 8.11341 61.763 7.99601 62.227 8.01674C62.6909 8.03748 63.1383 8.19541 63.5125 8.47054C63.761 8.65214 63.9713 8.88102 64.1313 9.14405C64.2912 9.40708 64.3976 9.69909 64.4445 10.0033C64.4914 10.3076 64.4777 10.6181 64.4043 10.9171C64.331 11.216 64.1993 11.4976 64.0169 11.7456Z" fill="black"/>
<path opacity="0.1" d="M73.4033 76.0178C73.1293 76.3927 72.7502 76.678 72.314 76.8373C71.8778 76.9967 71.4041 77.0231 70.9529 76.9131C70.5017 76.8031 70.0933 76.5617 69.7794 76.2194C69.4655 75.8771 69.2602 75.4494 69.1895 74.9904C69.1188 74.5314 69.1859 74.0618 69.3823 73.6409C69.5786 73.2201 69.8955 72.867 70.2927 72.6263C70.6899 72.3856 71.1495 72.2682 71.6135 72.289C72.0774 72.3097 72.5248 72.4676 72.8989 72.7428C73.1475 72.9244 73.3578 73.1532 73.5177 73.4163C73.6777 73.6793 73.7841 73.9713 73.831 74.2756C73.8779 74.5798 73.8642 74.8903 73.7908 75.1893C73.7174 75.4883 73.5858 75.7698 73.4033 76.0178Z" fill="black"/>
<path opacity="0.1" d="M22.9473 56.1119C22.6733 56.4869 22.2942 56.7721 21.858 56.9315C21.4217 57.0908 20.948 57.1172 20.4968 57.0072C20.0456 56.8972 19.6372 56.6558 19.3233 56.3135C19.0094 55.9713 18.8041 55.5436 18.7334 55.0846C18.6627 54.6256 18.7298 54.1559 18.9262 53.735C19.1226 53.3142 19.4394 52.9611 19.8366 52.7204C20.2338 52.4797 20.6935 52.3623 21.1574 52.3831C21.6214 52.4038 22.0687 52.5617 22.4429 52.8369C22.9433 53.2049 23.2774 53.7562 23.3719 54.3701C23.4665 54.984 23.3138 55.6104 22.9473 56.1119Z" fill="black"/>
<path d="M84.4929 50.2269C83.623 50.088 81.3714 53.6189 83.0747 53.7943C84.5002 53.9478 85.6333 50.4316 84.4929 50.2269Z" fill="white"/>
<path d="M111.19 16.512C111.709 17.243 115.796 16.3219 114.721 14.9914C113.814 13.8803 110.51 15.5836 111.19 16.512Z" fill="white"/>
<path d="M107.323 47.8073C106.592 48.2752 107.192 52.4201 108.595 51.4625C109.772 50.6072 108.295 47.1933 107.323 47.8073Z" fill="white"/>
<path d="M30.543 33.1794C29.6658 33.0405 27.4142 36.5714 29.1175 36.7468C30.543 36.9004 31.6761 33.3549 30.543 33.1794Z" fill="white"/>
<path d="M61.619 37.3755C61.0707 36.6445 57.0135 37.7264 58.1393 39.0203C59.0823 40.1023 62.3062 38.282 61.619 37.3755Z" fill="white"/>
<path d="M122.251 30.9425C121.769 31.6735 124.049 35.1898 124.919 33.7131C125.636 32.4704 122.872 29.9629 122.251 30.9425Z" fill="white"/>
<path d="M117.17 38.8521C116.307 39.0568 115.562 43.1725 117.206 42.69C118.595 42.288 118.288 38.5816 117.17 38.8521Z" fill="white"/>
<path d="M102.695 18.4931C102.14 19.2241 104.092 22.8792 105.093 21.4976C105.926 20.3353 103.412 17.5939 102.695 18.4931Z" fill="white"/>
<path d="M30.3745 24.8456C29.9432 24.0707 25.7763 24.4727 26.6828 25.9275C27.4504 27.1483 30.9374 25.8544 30.3745 24.8456Z" fill="white"/>
<path d="M128.186 66.7046C127.331 66.9532 126.797 71.0908 128.413 70.5426C129.765 70.0747 129.29 66.383 128.186 66.7046Z" fill="white"/>
<path d="M141.747 52.3248C141.206 53.0558 143.209 56.711 144.203 55.2489C145.022 54.0866 142.442 51.4037 141.747 52.3248Z" fill="white"/>
<path d="M42.2248 59.6866C41.4353 59.2772 38.1749 61.8797 39.732 62.6107C41.0332 63.2175 43.2482 60.2202 42.2248 59.6866Z" fill="white"/>
<path d="M72.7011 5.15171C72.7523 4.26716 69.0459 2.33724 69.0459 4.05516C68.9948 5.48798 72.6207 6.30674 72.7011 5.15171Z" fill="white"/>
<path d="M81.1084 13.3903C80.4724 12.7689 76.5906 14.3187 77.8699 15.4591C78.9446 16.4167 81.9272 14.1944 81.1084 13.3903Z" fill="white"/>
<path d="M97.1763 71.3905C96.3429 71.6902 96.0651 75.8644 97.6441 75.1992C98.9673 74.6436 98.2582 70.9958 97.1763 71.3905Z" fill="white"/>
<path d="M34.7754 33.2014C33.942 33.5011 33.6642 37.6826 35.2433 37.0174C36.5664 36.4618 35.8573 32.8066 34.7754 33.2014Z" fill="white"/>
<path d="M92.4756 77.1801C91.591 77.2532 90.224 81.2154 91.92 80.9888C93.3455 80.7987 93.6233 77.0851 92.4756 77.1801Z" fill="white"/>
</svg>
