<svg width="268" height="42" viewBox="0 0 268 42" fill="none" xmlns="http://www.w3.org/2000/svg">
<path d="M3.30084 41.44C2.34726 41.44 1.55873 41.1227 0.935239 40.488C0.311745 39.816 0 38.9947 0 38.024V3.416C0 2.44533 0.311745 1.64266 0.935239 1.008C1.55873 0.336 2.34726 0 3.30084 0C4.25443 0 5.04294 0.336 5.66645 1.008C6.28995 1.64266 6.60168 2.44533 6.60168 3.416V38.024C6.60168 38.9947 6.28995 39.816 5.66645 40.488C5.04294 41.1227 4.25443 41.44 3.30084 41.44ZM20.7953 11.48C21.6389 11.48 22.3724 11.8347 22.9959 12.544C23.6194 13.2533 23.9311 13.944 23.9311 14.616C23.9311 15.512 23.491 16.352 22.6108 17.136L6.05154 32.648L5.77647 24.92L18.3747 12.544C19.0715 11.8347 19.8784 11.48 20.7953 11.48ZM21.6205 41.384C20.6669 41.384 19.8601 41.0107 19.1999 40.264L9.0223 29.288L14.0286 24.584L23.9311 35.56C24.6279 36.3067 24.9764 37.1467 24.9764 38.08C24.9764 39.0507 24.5913 39.8533 23.8211 40.488C23.0875 41.0853 22.354 41.384 21.6205 41.384ZM42.629 10.92C44.7195 10.92 46.535 11.144 48.0754 11.592C49.6523 12.04 50.8626 12.6747 51.7063 13.496C52.5865 14.28 53.0266 15.232 53.0266 16.352C53.0266 17.0987 52.8066 17.808 52.3665 18.48C51.9264 19.1147 51.2847 19.432 50.441 19.432C49.8543 19.432 49.3592 19.3573 48.9556 19.208C48.589 19.0213 48.2589 18.7973 47.9654 18.536C47.6718 18.2747 47.3237 18.032 46.9201 17.808C46.5535 17.584 45.9849 17.416 45.2147 17.304C44.481 17.1547 43.9309 17.08 43.5642 17.08C41.6938 17.08 40.0984 17.4907 38.778 18.312C37.4943 19.1333 36.5041 20.2533 35.8073 21.672C35.1104 23.0533 34.762 24.6587 34.762 26.488C34.762 28.28 35.1104 29.8853 35.8073 31.304C36.5408 32.6853 37.531 33.7867 38.778 34.608C40.0617 35.4293 41.5287 35.84 43.1791 35.84C44.0959 35.84 44.8846 35.784 45.5447 35.672C46.2049 35.56 46.755 35.392 47.1952 35.168C47.7088 34.8693 48.1669 34.552 48.5705 34.216C48.9741 33.88 49.5792 33.712 50.386 33.712C51.3397 33.712 52.0729 34.0293 52.5865 34.664C53.1001 35.2613 53.3567 36.008 53.3567 36.904C53.3567 37.8373 52.8431 38.696 51.8163 39.48C50.7896 40.2267 49.4323 40.8427 47.7453 41.328C46.0949 41.776 44.2979 42 42.3539 42C39.4565 42 36.9442 41.328 34.817 39.984C32.6898 38.6027 31.0394 36.736 29.8657 34.384C28.7288 32.032 28.1603 29.4 28.1603 26.488C28.1603 23.4267 28.7655 20.7387 29.9758 18.424C31.2227 16.072 32.9282 14.2427 35.0921 12.936C37.2926 11.592 39.8049 10.92 42.629 10.92ZM82.2133 10.92C83.167 10.92 83.9553 11.2373 84.5789 11.872C85.2025 12.5067 85.5142 13.328 85.5142 14.336V38.024C85.5142 38.9947 85.2025 39.816 84.5789 40.488C83.9553 41.1227 83.167 41.44 82.2133 41.44C81.2596 41.44 80.4713 41.1227 79.8477 40.488C79.2241 39.816 78.9125 38.9947 78.9125 38.024V35.28L80.1228 35.784C80.1228 36.2693 79.8662 36.8667 79.3526 37.576C78.839 38.248 78.1423 38.92 77.262 39.592C76.3818 40.264 75.3365 40.8427 74.1262 41.328C72.9525 41.776 71.6691 42 70.2753 42C67.7446 42 65.4525 41.3467 63.3985 40.04C61.3445 38.696 59.7126 36.8667 58.5023 34.552C57.3285 32.2 56.7418 29.512 56.7418 26.488C56.7418 23.4267 57.3285 20.7387 58.5023 18.424C59.7126 16.072 61.3265 14.2427 63.3435 12.936C65.3605 11.592 67.5981 10.92 70.0552 10.92C71.6321 10.92 73.081 11.1627 74.4013 11.648C75.7216 12.1333 76.8585 12.7493 77.8122 13.496C78.8024 14.2427 79.5542 15.008 80.0678 15.792C80.6179 16.5387 80.893 17.1733 80.893 17.696L78.9125 18.424V14.336C78.9125 13.3653 79.2241 12.5627 79.8477 11.928C80.4713 11.256 81.2596 10.92 82.2133 10.92ZM71.1005 35.84C72.7144 35.84 74.1262 35.4293 75.3366 34.608C76.5469 33.7867 77.4821 32.6667 78.1423 31.248C78.839 29.8293 79.1875 28.2427 79.1875 26.488C79.1875 24.696 78.839 23.0907 78.1423 21.672C77.4821 20.2533 76.5469 19.1333 75.3366 18.312C74.1262 17.4907 72.7144 17.08 71.1005 17.08C69.5236 17.08 68.1297 17.4907 66.9194 18.312C65.7091 19.1333 64.7554 20.2533 64.0587 21.672C63.3985 23.0907 63.0684 24.696 63.0684 26.488C63.0684 28.2427 63.3985 29.8293 64.0587 31.248C64.7554 32.6667 65.7091 33.7867 66.9194 34.608C68.1297 35.4293 69.5236 35.84 71.1005 35.84ZM99.8139 38.024C99.8139 38.9947 99.4838 39.816 98.8237 40.488C98.2 41.1227 97.4118 41.44 96.4581 41.44C95.5413 41.44 94.7711 41.1227 94.1475 40.488C93.5238 39.816 93.2122 38.9947 93.2122 38.024V3.416C93.2122 2.44533 93.5238 1.64266 94.1475 1.008C94.8077 0.336 95.6144 0 96.5681 0C97.5218 0 98.292 0.336 98.8787 1.008C99.5023 1.64266 99.8139 2.44533 99.8139 3.416V38.024ZM131.586 10.92C132.54 10.92 133.328 11.2373 133.952 11.872C134.576 12.5067 134.887 13.328 134.887 14.336V38.024C134.887 38.9947 134.576 39.816 133.952 40.488C133.328 41.1227 132.54 41.44 131.586 41.44C130.633 41.44 129.844 41.1227 129.221 40.488C128.597 39.816 128.285 38.9947 128.285 38.024V35.28L129.496 35.784C129.496 36.2693 129.239 36.8667 128.726 37.576C128.212 38.248 127.515 38.92 126.635 39.592C125.755 40.264 124.709 40.8427 123.499 41.328C122.325 41.776 121.042 42 119.648 42C117.118 42 114.825 41.3467 112.771 40.04C110.717 38.696 109.086 36.8667 107.875 34.552C106.701 32.2 106.115 29.512 106.115 26.488C106.115 23.4267 106.701 20.7387 107.875 18.424C109.086 16.072 110.699 14.2427 112.716 12.936C114.733 11.592 116.971 10.92 119.428 10.92C121.005 10.92 122.454 11.1627 123.774 11.648C125.095 12.1333 126.231 12.7493 127.185 13.496C128.175 14.2427 128.927 15.008 129.441 15.792C129.991 16.5387 130.266 17.1733 130.266 17.696L128.285 18.424V14.336C128.285 13.3653 128.597 12.5627 129.221 11.928C129.844 11.256 130.633 10.92 131.586 10.92ZM120.473 35.84C122.087 35.84 123.499 35.4293 124.71 34.608C125.92 33.7867 126.855 32.6667 127.515 31.248C128.212 29.8293 128.56 28.2427 128.56 26.488C128.56 24.696 128.212 23.0907 127.515 21.672C126.855 20.2533 125.92 19.1333 124.71 18.312C123.499 17.4907 122.087 17.08 120.473 17.08C118.896 17.08 117.503 17.4907 116.292 18.312C115.082 19.1333 114.128 20.2533 113.432 21.672C112.771 23.0907 112.441 24.696 112.441 26.488C112.441 28.2427 112.771 29.8293 113.432 31.248C114.128 32.6667 115.082 33.7867 116.292 34.608C117.503 35.4293 118.896 35.84 120.473 35.84ZM175.601 11.48C176.445 11.48 177.178 11.816 177.802 12.488C178.426 13.1227 178.737 13.944 178.737 14.952C178.737 15.2133 178.719 15.456 178.682 15.68C178.646 15.8667 178.591 16.0533 178.517 16.24L170.1 39.312C169.843 40.0587 169.385 40.6373 168.725 41.048C168.064 41.4213 167.368 41.552 166.634 41.44C165.387 41.3653 164.452 40.656 163.828 39.312L158.382 23.352L159.812 23.408L154.696 39.312C154.072 40.656 153.137 41.3653 151.89 41.44C151.194 41.552 150.496 41.4213 149.8 41.048C149.14 40.6373 148.681 40.0587 148.424 39.312L140.007 16.24C139.861 15.8293 139.787 15.4 139.787 14.952C139.787 14.056 140.081 13.2533 140.667 12.544C141.254 11.8347 142.061 11.48 143.088 11.48C143.785 11.48 144.408 11.648 144.959 11.984C145.509 12.32 145.894 12.8613 146.114 13.608L152.771 31.976L151.395 31.864L156.401 18.032C156.988 16.6507 157.997 15.96 159.427 15.96C160.234 15.96 160.839 16.1467 161.243 16.52C161.683 16.856 162.031 17.36 162.288 18.032L167.294 31.864L165.644 32.088L172.411 13.608C172.851 12.1893 173.914 11.48 175.601 11.48ZM208.251 10.92C209.205 10.92 209.993 11.2373 210.617 11.872C211.241 12.5067 211.552 13.328 211.552 14.336V38.024C211.552 38.9947 211.241 39.816 210.617 40.488C209.993 41.1227 209.205 41.44 208.251 41.44C207.298 41.44 206.509 41.1227 205.886 40.488C205.262 39.816 204.95 38.9947 204.95 38.024V35.28L206.161 35.784C206.161 36.2693 205.904 36.8667 205.391 37.576C204.877 38.248 204.18 38.92 203.3 39.592C202.42 40.264 201.375 40.8427 200.164 41.328C198.99 41.776 197.707 42 196.313 42C193.783 42 191.491 41.3467 189.437 40.04C187.383 38.696 185.751 36.8667 184.54 34.552C183.366 32.2 182.78 29.512 182.78 26.488C182.78 23.4267 183.366 20.7387 184.54 18.424C185.751 16.072 187.364 14.2427 189.382 12.936C191.399 11.592 193.636 10.92 196.093 10.92C197.67 10.92 199.119 11.1627 200.439 11.648C201.76 12.1333 202.896 12.7493 203.85 13.496C204.84 14.2427 205.592 15.008 206.106 15.792C206.656 16.5387 206.931 17.1733 206.931 17.696L204.95 18.424V14.336C204.95 13.3653 205.262 12.5627 205.886 11.928C206.509 11.256 207.298 10.92 208.251 10.92ZM197.138 35.84C198.752 35.84 200.164 35.4293 201.375 34.608C202.585 33.7867 203.52 32.6667 204.18 31.248C204.877 29.8293 205.226 28.2427 205.226 26.488C205.226 24.696 204.877 23.0907 204.18 21.672C203.52 20.2533 202.585 19.1333 201.375 18.312C200.164 17.4907 198.752 17.08 197.138 17.08C195.562 17.08 194.168 17.4907 192.957 18.312C191.747 19.1333 190.793 20.2533 190.097 21.672C189.437 23.0907 189.106 24.696 189.106 26.488C189.106 28.2427 189.437 29.8293 190.097 31.248C190.793 32.6667 191.747 33.7867 192.957 34.608C194.168 35.4293 195.562 35.84 197.138 35.84ZM222.001 41.44C221.047 41.44 220.259 41.1227 219.635 40.488C219.012 39.816 218.7 38.9947 218.7 38.024V14.896C218.7 13.9253 219.012 13.1227 219.635 12.488C220.259 11.816 221.047 11.48 222.001 11.48C222.955 11.48 223.743 11.816 224.367 12.488C224.99 13.1227 225.302 13.9253 225.302 14.896V20.16L224.917 16.408C225.32 15.512 225.833 14.728 226.457 14.056C227.117 13.3467 227.851 12.768 228.658 12.32C229.464 11.8347 230.327 11.48 231.243 11.256C232.16 11.032 233.077 10.92 233.994 10.92C235.094 10.92 236.011 11.2373 236.745 11.872C237.515 12.5067 237.9 13.2533 237.9 14.112C237.9 15.344 237.588 16.24 236.965 16.8C236.341 17.3227 235.663 17.584 234.929 17.584C234.233 17.584 233.59 17.4533 233.004 17.192C232.454 16.9307 231.812 16.8 231.078 16.8C230.418 16.8 229.739 16.968 229.043 17.304C228.383 17.6027 227.759 18.088 227.172 18.76C226.622 19.432 226.164 20.272 225.797 21.28C225.467 22.2507 225.302 23.408 225.302 24.752V38.024C225.302 38.9947 224.99 39.816 224.367 40.488C223.743 41.1227 222.955 41.44 222.001 41.44ZM255.182 42C252.064 42 249.35 41.3467 247.04 40.04C244.766 38.696 243.005 36.8853 241.758 34.608C240.548 32.3307 239.943 29.7547 239.943 26.88C239.943 23.52 240.603 20.664 241.923 18.312C243.28 15.9227 245.041 14.0933 247.205 12.824C249.369 11.5547 251.661 10.92 254.081 10.92C255.952 10.92 257.712 11.312 259.363 12.096C261.05 12.88 262.535 13.9627 263.819 15.344C265.103 16.688 266.111 18.256 266.845 20.048C267.615 21.84 268 23.744 268 25.76C267.963 26.656 267.615 27.384 266.955 27.944C266.295 28.504 265.524 28.784 264.644 28.784H243.629L241.978 23.184H262.169L260.958 24.304V22.792C260.885 21.7093 260.5 20.7387 259.803 19.88C259.143 19.0213 258.299 18.3493 257.272 17.864C256.282 17.3413 255.218 17.08 254.081 17.08C252.981 17.08 251.954 17.2293 251.001 17.528C250.047 17.8267 249.222 18.3307 248.525 19.04C247.828 19.7493 247.278 20.7013 246.875 21.896C246.471 23.0907 246.269 24.6027 246.269 26.432C246.269 28.448 246.673 30.1653 247.48 31.584C248.323 32.9653 249.387 34.0293 250.671 34.776C251.991 35.4853 253.385 35.84 254.852 35.84C256.209 35.84 257.291 35.728 258.097 35.504C258.904 35.28 259.546 35.0187 260.023 34.72C260.537 34.384 260.995 34.104 261.398 33.88C262.058 33.544 262.682 33.376 263.269 33.376C264.076 33.376 264.736 33.656 265.249 34.216C265.799 34.776 266.075 35.4293 266.075 36.176C266.075 37.184 265.561 38.0987 264.534 38.92C263.58 39.7413 262.242 40.4693 260.518 41.104C258.794 41.7013 257.016 42 255.182 42Z" fill="#9F5F91"/>
</svg>
