<svg width="23" height="17" viewBox="0 0 23 17" fill="none" xmlns="http://www.w3.org/2000/svg">
<path d="M15.9869 9.25989C15.9353 9.29886 15.7406 9.46548 15.5592 9.60255C14.4955 10.4646 11.7208 11.8755 10.2686 12.3062C10.048 12.3754 9.49041 12.5218 9.19249 12.5312C8.90702 12.5312 8.63488 12.4829 8.3752 12.3848C8.05149 12.2477 7.7918 12.032 7.64951 11.7774C7.55791 11.6007 7.41562 11.0719 7.41562 11.0625C7.27333 10.484 7.19507 9.54409 7.19507 8.50537C7.19507 7.5157 7.27333 6.61405 7.38983 6.02683C7.40317 6.01742 7.54546 5.36033 7.70109 5.13525C7.98657 4.72406 8.54417 4.46875 9.14091 4.46875H9.19249C9.58113 4.47883 10.3984 4.73414 10.3984 4.74355C11.7724 5.17489 14.4831 6.51662 15.5725 7.4082C15.5725 7.4082 15.8793 7.63731 16.0127 7.78042C16.2208 7.98602 16.324 8.24066 16.324 8.4953C16.324 8.7795 16.2075 9.04422 15.9869 9.25989" fill="white"/>
</svg>
